solid flow_calibration_cube_30x30x20
  facet normal 0 0 -1
    outer loop
      vertex -15 -15 0
      vertex 15 15 0
      vertex 15 -15 0
    endloop
  endfacet
  facet normal 0 0 -1
    outer loop
      vertex -15 -15 0
      vertex -15 15 0
      vertex 15 15 0
    endloop
  endfacet
  facet normal 0 0 1
    outer loop
      vertex -15 -15 20
      vertex 15 -15 20
      vertex 15 15 20
    endloop
  endfacet
  facet normal 0 0 1
    outer loop
      vertex -15 -15 20
      vertex 15 15 20
      vertex -15 15 20
    endloop
  endfacet
  facet normal 0 -1 0
    outer loop
      vertex -15 -15 0
      vertex 15 -15 0
      vertex 15 -15 20
    endloop
  endfacet
  facet normal 0 -1 0
    outer loop
      vertex -15 -15 0
      vertex 15 -15 20
      vertex -15 -15 20
    endloop
  endfacet
  facet normal 1 0 0
    outer loop
      vertex 15 -15 0
      vertex 15 15 0
      vertex 15 15 20
    endloop
  endfacet
  facet normal 1 0 0
    outer loop
      vertex 15 -15 0
      vertex 15 15 20
      vertex 15 -15 20
    endloop
  endfacet
  facet normal 0 1 0
    outer loop
      vertex 15 15 0
      vertex -15 15 0
      vertex -15 15 20
    endloop
  endfacet
  facet normal 0 1 0
    outer loop
      vertex 15 15 0
      vertex -15 15 20
      vertex 15 15 20
    endloop
  endfacet
  facet normal -1 0 0
    outer loop
      vertex -15 15 0
      vertex -15 -15 0
      vertex -15 -15 20
    endloop
  endfacet
  facet normal -1 0 0
    outer loop
      vertex -15 15 0
      vertex -15 -15 20
      vertex -15 15 20
    endloop
  endfacet
endsolid flow_calibration_cube_30x30x20
